<svg xmlns="http://www.w3.org/2000/svg" viewBox="0 0 960 560">
  <rect width="960" height="560" rx="36" fill="#fbf5ec" />
  <g fill="#d08a52">
    <rect x="130" y="90" width="80" height="80" rx="18" />
    <rect x="130" y="240" width="80" height="80" rx="18" />
    <rect x="130" y="390" width="80" height="80" rx="18" />
    <rect x="740" y="90" width="80" height="80" rx="18" />
    <rect x="740" y="240" width="80" height="80" rx="18" />
    <rect x="740" y="390" width="80" height="80" rx="18" />
  </g>
  <g stroke="#b55f2f" stroke-width="4" opacity="0.65">
    <path d="M210 130C380 130 520 130 740 130" />
    <path d="M210 130C420 170 560 250 740 280" />
    <path d="M210 280C420 280 560 280 740 280" />
    <path d="M210 430C430 410 560 360 740 130" />
    <path d="M210 430C420 430 560 430 740 430" />
  </g>
</svg>

